<svg xmlns="http://www.w3.org/2000/svg" xmlns:xlink="http://www.w3.org/1999/xlink" viewBox="0 0 2560 1445.39"><defs><style>.cls-1{opacity:0.8;}.cls-2{isolation:isolate;}.cls-3{fill:url(#linear-gradient);}.cls-12,.cls-23,.cls-32,.cls-35,.cls-4,.cls-5{mix-blend-mode:overlay;}.cls-4{fill:url(#linear-gradient-2);}.cls-6,.cls-7{font-size:820.75px;font-family:VDub-Regular, V Dub;}.cls-6,.cls-8{fill:#5fbaa0;}.cls-6{letter-spacing:-0.49em;}.cls-7{fill:#eeff94;letter-spacing:-0.49em;}.cls-8{font-size:180px;font-family:SFPlanetaryOrbiter, SF Planetary Orbiter;opacity:0.75;}.cls-9{fill:#cd4557;opacity:0.57;}.cls-10,.cls-11{fill:none;}.cls-11{stroke:#fff;stroke-linecap:round;stroke-miterlimit:10;stroke-width:20px;}.cls-11,.cls-33{opacity:0.7;}.cls-12{fill:#ffafcb;}.cls-13,.cls-14,.cls-15,.cls-17,.cls-18{opacity:0.3;}.cls-13{fill:url(#linear-gradient-3);}.cls-14{fill:url(#linear-gradient-4);}.cls-15{fill:url(#linear-gradient-5);}.cls-16{fill:url(#linear-gradient-6);}.cls-17{fill:url(#linear-gradient-7);}.cls-18{fill:url(#linear-gradient-8);}.cls-19{fill:url(#linear-gradient-9);}.cls-100,.cls-101,.cls-102,.cls-103,.cls-20,.cls-21,.cls-38,.cls-43,.cls-44,.cls-45,.cls-46,.cls-47,.cls-48,.cls-49,.cls-50,.cls-51,.cls-52,.cls-53,.cls-54,.cls-55,.cls-56,.cls-57,.cls-58,.cls-59,.cls-60,.cls-61,.cls-62,.cls-63,.cls-64,.cls-65,.cls-66,.cls-67,.cls-68,.cls-69,.cls-70,.cls-71,.cls-72,.cls-73,.cls-74,.cls-75,.cls-76,.cls-77,.cls-78,.cls-79,.cls-80,.cls-81,.cls-82,.cls-83,.cls-84,.cls-85,.cls-86,.cls-87,.cls-88,.cls-89,.cls-90,.cls-91,.cls-92,.cls-93,.cls-94,.cls-95,.cls-96,.cls-97,.cls-98,.cls-99{mix-blend-mode:screen;}.cls-20{fill:url(#linear-gradient-10);}.cls-21{fill:url(#linear-gradient-11);}.cls-22,.cls-31,.cls-37,.cls-39,.cls-40,.cls-41{mix-blend-mode:color-dodge;}.cls-22{fill:url(#linear-gradient-12);}.cls-23{fill:#a6f4ff;}.cls-24{fill:url(#linear-gradient-13);}.cls-25{fill:url(#linear-gradient-14);}.cls-26{fill:url(#linear-gradient-15);}.cls-27{fill:url(#linear-gradient-16);}.cls-28{fill:url(#linear-gradient-17);}.cls-29{fill:url(#linear-gradient-18);}.cls-30{fill:url(#linear-gradient-19);}.cls-31{fill:url(#linear-gradient-20);}.cls-32{fill:#fff;opacity:0.2;}.cls-33,.cls-34{mix-blend-mode:hard-light;}.cls-33{fill:url(#linear-gradient-21);}.cls-34{opacity:0.55;fill:url(#linear-gradient-22);}.cls-35{opacity:0.3;fill:url(#linear-gradient-23);}.cls-36{mask:url(#mask);}.cls-37{fill:url(#linear-gradient-24);}.cls-38{fill:url(#linear-gradient-25);}.cls-39{fill:url(#linear-gradient-27);}.cls-40{fill:url(#linear-gradient-28);}.cls-41{fill:url(#linear-gradient-29);}.cls-42{opacity:0.25;}.cls-43{fill:url(#linear-gradient-30);}.cls-44{fill:url(#linear-gradient-31);}.cls-45{fill:url(#linear-gradient-32);}.cls-46{fill:url(#linear-gradient-33);}.cls-47{fill:url(#linear-gradient-34);}.cls-48{fill:url(#linear-gradient-35);}.cls-49{fill:url(#linear-gradient-36);}.cls-50{fill:url(#linear-gradient-37);}.cls-51{fill:url(#linear-gradient-38);}.cls-52{fill:url(#linear-gradient-39);}.cls-53{fill:url(#linear-gradient-40);}.cls-54{fill:url(#linear-gradient-41);}.cls-55{fill:url(#linear-gradient-42);}.cls-56{fill:url(#linear-gradient-43);}.cls-57{fill:url(#linear-gradient-44);}.cls-58{fill:url(#linear-gradient-45);}.cls-59{fill:url(#linear-gradient-46);}.cls-60{fill:url(#linear-gradient-47);}.cls-61{fill:url(#linear-gradient-48);}.cls-62{fill:url(#linear-gradient-49);}.cls-63{fill:url(#linear-gradient-50);}.cls-64{fill:url(#linear-gradient-51);}.cls-65{fill:url(#linear-gradient-52);}.cls-66{fill:url(#linear-gradient-53);}.cls-67{fill:url(#linear-gradient-54);}.cls-68{fill:url(#linear-gradient-55);}.cls-69{fill:url(#linear-gradient-56);}.cls-70{fill:url(#linear-gradient-57);}.cls-71{fill:url(#linear-gradient-58);}.cls-72{fill:url(#linear-gradient-59);}.cls-73{fill:url(#linear-gradient-60);}.cls-74{fill:url(#linear-gradient-61);}.cls-75{fill:url(#linear-gradient-62);}.cls-76{fill:url(#linear-gradient-63);}.cls-77{fill:url(#linear-gradient-64);}.cls-78{fill:url(#linear-gradient-65);}.cls-79{fill:url(#linear-gradient-66);}.cls-80{fill:url(#linear-gradient-67);}.cls-81{fill:url(#linear-gradient-68);}.cls-82{fill:url(#linear-gradient-69);}.cls-83{fill:url(#linear-gradient-70);}.cls-84{fill:url(#linear-gradient-71);}.cls-85{fill:url(#linear-gradient-72);}.cls-86{fill:url(#linear-gradient-73);}.cls-87{fill:url(#linear-gradient-74);}.cls-88{fill:url(#linear-gradient-75);}.cls-89{fill:url(#linear-gradient-76);}.cls-90{fill:url(#linear-gradient-77);}.cls-91{fill:url(#linear-gradient-78);}.cls-92{fill:url(#linear-gradient-79);}.cls-93{fill:url(#linear-gradient-80);}.cls-94{fill:url(#linear-gradient-81);}.cls-95{fill:url(#linear-gradient-82);}.cls-96{fill:url(#linear-gradient-83);}.cls-97{fill:url(#linear-gradient-84);}.cls-98{fill:url(#linear-gradient-85);}.cls-99{fill:url(#linear-gradient-86);}.cls-100{fill:url(#linear-gradient-87);}.cls-101{fill:url(#linear-gradient-88);}.cls-102{fill:url(#linear-gradient-89);}.cls-103{fill:url(#linear-gradient-90);}.cls-104{filter:url(#luminosity-noclip);}</style><linearGradient id="linear-gradient" x1="-24.89" y1="725.39" x2="2535.11" y2="725.39" gradientUnits="userSpaceOnUse"><stop offset="0.16" stop-color="#21409a"/><stop offset="0.5" stop-color="#4d4099"/><stop offset="0.83" stop-color="#713f98"/><stop offset="1" stop-color="#7f3f98"/></linearGradient><linearGradient id="linear-gradient-2" x1="573.44" y1="714.61" x2="2560" y2="714.61" gradientUnits="userSpaceOnUse"><stop offset="0" stop-color="#21409a" stop-opacity="0.2"/><stop offset="1" stop-color="#7f3f98" stop-opacity="0.5"/></linearGradient><linearGradient id="linear-gradient-3" x1="841" y1="501.06" x2="841" y2="349.06" gradientUnits="userSpaceOnUse"><stop offset="0" stop-color="#5fbaa0"/><stop offset="1" stop-color="#f6ee1e"/></linearGradient><linearGradient id="linear-gradient-4" y1="489.06" y2="361.06" xlink:href="#linear-gradient-3"/><linearGradient id="linear-gradient-5" y1="477.06" y2="373.06" xlink:href="#linear-gradient-3"/><linearGradient id="linear-gradient-6" y1="465.06" y2="385.06" xlink:href="#linear-gradient-3"/><linearGradient id="linear-gradient-7" x1="1745.47" y1="1089.39" x2="1745.47" y2="991.39" gradientUnits="userSpaceOnUse"><stop offset="0" stop-color="#cd4557"/><stop offset="1" stop-color="#e3b019"/></linearGradient><linearGradient id="linear-gradient-8" x1="1745.47" y1="1077.39" x2="1745.47" y2="1003.39" xlink:href="#linear-gradient-7"/><linearGradient id="linear-gradient-9" x1="1745.47" y1="1065.39" x2="1745.47" y2="1015.39" xlink:href="#linear-gradient-7"/><linearGradient id="linear-gradient-10" x1="1708.47" y1="439.43" x2="1708.47" y2="479.43" gradientUnits="userSpaceOnUse"><stop offset="0" stop-color="#1f2ad5" stop-opacity="0.1"/><stop offset="0.47" stop-color="#6c30dd" stop-opacity="0.51"/><stop offset="1" stop-color="#c838e7"/></linearGradient><linearGradient id="linear-gradient-11" x1="825" y1="988.39" x2="825" y2="1028.39" xlink:href="#linear-gradient-10"/><linearGradient id="linear-gradient-12" x1="1385.67" y1="1067.39" x2="1385.67" y2="1087.39" gradientUnits="userSpaceOnUse"><stop offset="0" stop-color="#5fbaa0"/><stop offset="1" stop-color="#f6ee1e" stop-opacity="0"/></linearGradient><linearGradient id="linear-gradient-13" x1="1326.95" y1="991.04" x2="1276.81" y2="706.68" gradientUnits="userSpaceOnUse"><stop offset="0" stop-color="#4268db"/><stop offset="0.15" stop-color="#4c76df"/><stop offset="0.43" stop-color="#659ae8"/><stop offset="0.8" stop-color="#8fd3f7"/><stop offset="1" stop-color="#a6f4ff"/></linearGradient><linearGradient id="linear-gradient-14" x1="1438.56" y1="681.34" x2="1438.56" y2="681.34" xlink:href="#linear-gradient-13"/><linearGradient id="linear-gradient-15" x1="1261.1" y1="714.61" x2="1261.1" y2="714.61" xlink:href="#linear-gradient-13"/><linearGradient id="linear-gradient-16" x1="1441.39" y1="681.34" x2="1441.39" y2="681.34" xlink:href="#linear-gradient-13"/><linearGradient id="linear-gradient-17" x1="1345.85" y1="987.7" x2="1295.71" y2="703.34" xlink:href="#linear-gradient-13"/><linearGradient id="linear-gradient-18" x1="1309.49" y1="994.11" x2="1272.54" y2="784.55" gradientUnits="userSpaceOnUse"><stop offset="0" stop-color="#de009f"/><stop offset="0.37" stop-color="#df5dc7"/><stop offset="0.67" stop-color="#e0a2e5"/><stop offset="0.89" stop-color="#e1cdf8"/><stop offset="1" stop-color="#e1deff"/></linearGradient><linearGradient id="linear-gradient-19" x1="1156.19" y1="800.5" x2="1156.19" y2="670.92" gradientUnits="userSpaceOnUse"><stop offset="0" stop-color="#466fdd"/><stop offset="0.09" stop-color="#4268db"/><stop offset="0.74" stop-color="#a6f4ff"/></linearGradient><linearGradient id="linear-gradient-20" x1="1587.29" y1="1021.75" x2="1428.19" y2="862.65" gradientUnits="userSpaceOnUse"><stop offset="0" stop-color="#1f2ad5"/><stop offset="1" stop-color="#c838e7"/></linearGradient><linearGradient id="linear-gradient-21" x1="1374.11" y1="978.55" x2="1185.89" y2="461.45" gradientUnits="userSpaceOnUse"><stop offset="0" stop-color="#dfff3b"/><stop offset="0.02" stop-color="#e2ff4c" stop-opacity="0.81"/><stop offset="0.06" stop-color="#e5ff5f" stop-opacity="0.6"/><stop offset="0.09" stop-color="#e8ff6f" stop-opacity="0.41"/><stop offset="0.12" stop-color="#eaff7c" stop-opacity="0.26"/><stop offset="0.15" stop-color="#ecff87" stop-opacity="0.15"/><stop offset="0.18" stop-color="#edff8e" stop-opacity="0.07"/><stop offset="0.21" stop-color="#eeff93" stop-opacity="0.02"/><stop offset="0.23" stop-color="#eeff94" stop-opacity="0"/></linearGradient><linearGradient id="linear-gradient-22" x1="1485.06" y1="930.45" x2="1074.94" y2="520.33" gradientUnits="userSpaceOnUse"><stop offset="0" stop-color="#ffafcb" stop-opacity="0"/><stop offset="1" stop-color="#e678ff"/></linearGradient><linearGradient id="linear-gradient-23" x1="1485.06" y1="930.45" x2="1074.94" y2="520.33" gradientUnits="userSpaceOnUse"><stop offset="0" stop-color="#fff"/><stop offset="1" stop-color="#231f20" stop-opacity="0"/></linearGradient><filter id="luminosity-noclip" x="832.09" y="407.67" width="871.19" height="633.7" filterUnits="userSpaceOnUse" color-interpolation-filters="sRGB"><feFlood flood-color="#fff" result="bg"/><feBlend in="SourceGraphic" in2="bg"/></filter><mask id="mask" x="832.09" y="413.06" width="871.19" height="633.7" maskUnits="userSpaceOnUse"><g class="cls-104"><g transform="translate(0 5.39)"><path class="cls-1" d="M1058.78,888.11c45.64-49.58,83.61-77.15,135.11-117.33,93.57-73,81-70,120.89-96,31.15-20.33,23.18-12,142.22-74.67,31.49-16.59,52.54-28,68.16-35.06-51.41-81.16-142-135-245.16-135-160.16,0-290,129.84-290,290a288.68,288.68,0,0,0,60.5,177.27C1053.09,894.35,1055.84,891.3,1058.78,888.11Z"/></g></g></mask><linearGradient id="linear-gradient-24" x1="1373.23" y1="830.06" x2="1162.14" y2="618.97" gradientUnits="userSpaceOnUse"><stop offset="0" stop-color="#cb5180"/><stop offset="0.48" stop-color="#784a69"/><stop offset="0.83" stop-color="#43465a"/><stop offset="1" stop-color="#2e4454"/></linearGradient><linearGradient id="linear-gradient-25" x1="1373.23" y1="830.06" x2="1162.14" y2="618.97" gradientUnits="userSpaceOnUse"><stop offset="0" stop-color="#cb5180"/><stop offset="0" stop-color="#ca517f"/><stop offset="0.15" stop-color="#953b5e" stop-opacity="0.84"/><stop offset="0.29" stop-color="#672941" stop-opacity="0.71"/><stop offset="0.44" stop-color="#421a2a" stop-opacity="0.6"/><stop offset="0.58" stop-color="#250f17" stop-opacity="0.51"/><stop offset="0.72" stop-color="#11070a" stop-opacity="0.45"/><stop offset="0.86" stop-color="#040203" stop-opacity="0.41"/><stop offset="1" stop-opacity="0.4"/></linearGradient><linearGradient id="linear-gradient-27" x1="1113.83" y1="351.06" x2="1113.83" y2="371.06" xlink:href="#linear-gradient-12"/><linearGradient id="linear-gradient-28" x1="1109.72" y1="645.39" x2="1109.72" y2="665.39" xlink:href="#linear-gradient-12"/><linearGradient id="linear-gradient-29" x1="1395.67" y1="604.71" x2="1395.67" y2="624.71" xlink:href="#linear-gradient-12"/><linearGradient id="linear-gradient-30" x1="1133.83" y1="715.39" x2="1133.83" y2="735.39" xlink:href="#linear-gradient-12"/><linearGradient id="linear-gradient-31" x1="1178.26" y1="747.95" x2="1178.26" y2="767.95" xlink:href="#linear-gradient-12"/><linearGradient id="linear-gradient-32" x1="1085.69" y1="756.4" x2="1085.69" y2="776.4" xlink:href="#linear-gradient-12"/><linearGradient id="linear-gradient-33" x1="1227.22" y1="715.39" x2="1227.22" y2="735.39" xlink:href="#linear-gradient-12"/><linearGradient id="linear-gradient-34" x1="1428.56" y1="699.98" x2="1428.56" y2="719.98" xlink:href="#linear-gradient-12"/><linearGradient id="linear-gradient-35" x1="1375.01" y1="741.47" x2="1375.01" y2="761.47" xlink:href="#linear-gradient-12"/><linearGradient id="linear-gradient-36" x1="1332.36" y1="731.47" x2="1332.36" y2="751.47" xlink:href="#linear-gradient-12"/><linearGradient id="linear-gradient-37" x1="1295" y1="757.95" x2="1295" y2="777.95" xlink:href="#linear-gradient-12"/><linearGradient id="linear-gradient-38" x1="1292.5" y1="800.84" x2="1292.5" y2="820.84" xlink:href="#linear-gradient-12"/><linearGradient id="linear-gradient-39" x1="1251.1" y1="823.51" x2="1251.1" y2="843.51" xlink:href="#linear-gradient-12"/><linearGradient id="linear-gradient-40" x1="1211.22" y1="810.84" x2="1211.22" y2="830.84" xlink:href="#linear-gradient-12"/><linearGradient id="linear-gradient-41" x1="1168.26" y1="865.28" x2="1168.26" y2="885.28" xlink:href="#linear-gradient-12"/><linearGradient id="linear-gradient-42" x1="1041.13" y1="790.84" x2="1041.13" y2="810.84" xlink:href="#linear-gradient-12"/><linearGradient id="linear-gradient-43" x1="1113.83" y1="833.51" x2="1113.83" y2="853.51" xlink:href="#linear-gradient-12"/><linearGradient id="linear-gradient-44" x1="1428.56" y1="785.9" x2="1428.56" y2="805.9" xlink:href="#linear-gradient-12"/><linearGradient id="linear-gradient-45" x1="1436.37" y1="746.4" x2="1436.37" y2="766.4" xlink:href="#linear-gradient-12"/><linearGradient id="linear-gradient-46" x1="1497.74" y1="737.95" x2="1497.74" y2="757.95" xlink:href="#linear-gradient-12"/><linearGradient id="linear-gradient-47" x1="1115" y1="905.93" x2="1115" y2="925.93" xlink:href="#linear-gradient-12"/><linearGradient id="linear-gradient-48" x1="1201.22" y1="949.06" x2="1201.22" y2="969.06" xlink:href="#linear-gradient-12"/><linearGradient id="linear-gradient-49" x1="1221.22" y1="915.93" x2="1221.22" y2="935.93" xlink:href="#linear-gradient-12"/><linearGradient id="linear-gradient-50" x1="1298.11" y1="890.65" x2="1298.11" y2="910.65" xlink:href="#linear-gradient-12"/><linearGradient id="linear-gradient-51" x1="1352.36" y1="845.28" x2="1352.36" y2="865.28" xlink:href="#linear-gradient-12"/><linearGradient id="linear-gradient-52" x1="1448.04" y1="835.28" x2="1448.04" y2="855.28" xlink:href="#linear-gradient-12"/><linearGradient id="linear-gradient-53" x1="1441.39" y1="899.06" x2="1441.39" y2="919.06" xlink:href="#linear-gradient-12"/><linearGradient id="linear-gradient-54" x1="1385.01" y1="889.06" x2="1385.01" y2="909.06" xlink:href="#linear-gradient-12"/><linearGradient id="linear-gradient-55" x1="1365.01" y1="946.68" x2="1365.01" y2="966.68" xlink:href="#linear-gradient-12"/><linearGradient id="linear-gradient-56" x1="1265" y1="966.68" x2="1265" y2="986.68" xlink:href="#linear-gradient-12"/><linearGradient id="linear-gradient-57" x1="1219.11" y1="752.48" x2="1219.11" y2="787.41" xlink:href="#linear-gradient-12"/><linearGradient id="linear-gradient-58" x1="1123.83" y1="865.54" x2="1123.83" y2="900.47" xlink:href="#linear-gradient-12"/><linearGradient id="linear-gradient-59" x1="1175.62" y1="893.18" x2="1175.62" y2="928.12" xlink:href="#linear-gradient-12"/><linearGradient id="linear-gradient-60" x1="1310.51" y1="928.24" x2="1310.51" y2="963.17" xlink:href="#linear-gradient-12"/><linearGradient id="linear-gradient-61" x1="1472.39" y1="864.38" x2="1472.39" y2="899.32" xlink:href="#linear-gradient-12"/><linearGradient id="linear-gradient-62" x1="1190.76" y1="710.13" x2="1190.76" y2="723.26" xlink:href="#linear-gradient-12"/><linearGradient id="linear-gradient-63" x1="1428.56" y1="929.37" x2="1428.56" y2="942.5" xlink:href="#linear-gradient-12"/><linearGradient id="linear-gradient-64" x1="1140.39" y1="772.97" x2="1140.39" y2="786.1" xlink:href="#linear-gradient-12"/><linearGradient id="linear-gradient-65" x1="1256.53" y1="755.85" x2="1256.53" y2="768.98" xlink:href="#linear-gradient-12"/><linearGradient id="linear-gradient-66" x1="1472.39" y1="759.84" x2="1472.39" y2="772.97" xlink:href="#linear-gradient-12"/><linearGradient id="linear-gradient-67" x1="1097.27" y1="779.53" x2="1097.27" y2="792.66" xlink:href="#linear-gradient-12"/><linearGradient id="linear-gradient-68" x1="1325.47" y1="766.4" x2="1325.47" y2="779.53" xlink:href="#linear-gradient-12"/><linearGradient id="linear-gradient-69" x1="1332.03" y1="794.27" x2="1332.03" y2="807.4" xlink:href="#linear-gradient-12"/><linearGradient id="linear-gradient-70" x1="1388.55" y1="710.13" x2="1388.55" y2="723.26" xlink:href="#linear-gradient-12"/><linearGradient id="linear-gradient-71" x1="1156.19" y1="939.14" x2="1156.19" y2="952.27" xlink:href="#linear-gradient-12"/><linearGradient id="linear-gradient-72" x1="1259.15" y1="797.71" x2="1259.15" y2="810.84" xlink:href="#linear-gradient-12"/><linearGradient id="linear-gradient-73" x1="1217.86" y1="854.26" x2="1217.86" y2="867.39" xlink:href="#linear-gradient-12"/><linearGradient id="linear-gradient-74" x1="1069.62" y1="811.95" x2="1069.62" y2="825.08" xlink:href="#linear-gradient-12"/><linearGradient id="linear-gradient-75" x1="1182.17" y1="833.4" x2="1182.17" y2="846.53" xlink:href="#linear-gradient-12"/><linearGradient id="linear-gradient-76" x1="1394.77" y1="806.95" x2="1394.77" y2="820.08" xlink:href="#linear-gradient-12"/><linearGradient id="linear-gradient-77" x1="1524.29" y1="797.71" x2="1524.29" y2="810.84" xlink:href="#linear-gradient-12"/><linearGradient id="linear-gradient-78" x1="1524.29" y1="749.28" x2="1524.29" y2="762.41" xlink:href="#linear-gradient-12"/><linearGradient id="linear-gradient-79" x1="1103.83" y1="708.83" x2="1103.83" y2="721.96" xlink:href="#linear-gradient-12"/><linearGradient id="linear-gradient-80" x1="1085.69" y1="868.72" x2="1085.69" y2="881.85" xlink:href="#linear-gradient-12"/><linearGradient id="linear-gradient-81" x1="1252.59" y1="887.52" x2="1252.59" y2="900.65" xlink:href="#linear-gradient-12"/><linearGradient id="linear-gradient-82" x1="1316.86" y1="878.72" x2="1316.86" y2="891.85" xlink:href="#linear-gradient-12"/><linearGradient id="linear-gradient-83" x1="1325.47" y1="848.72" x2="1325.47" y2="861.85" xlink:href="#linear-gradient-12"/><linearGradient id="linear-gradient-84" x1="1401.32" y1="834.56" x2="1401.32" y2="847.7" xlink:href="#linear-gradient-12"/><linearGradient id="linear-gradient-85" x1="1472.39" y1="838.72" x2="1472.39" y2="851.85" xlink:href="#linear-gradient-12"/><linearGradient id="linear-gradient-86" x1="1524.29" y1="713.43" x2="1524.29" y2="726.57" xlink:href="#linear-gradient-12"/><linearGradient id="linear-gradient-87" x1="1362.36" y1="912.49" x2="1362.36" y2="925.63" xlink:href="#linear-gradient-12"/><linearGradient id="linear-gradient-88" x1="1310.3" y1="975.72" x2="1310.3" y2="988.86" xlink:href="#linear-gradient-12"/><linearGradient id="linear-gradient-89" x1="1478.95" y1="789.94" x2="1478.95" y2="824.87" xlink:href="#linear-gradient-12"/><linearGradient id="linear-gradient-90" x1="1283.39" y1="846.91" x2="1283.39" y2="881.85" xlink:href="#linear-gradient-12"/></defs><g class="cls-2"><g id="bg"><rect class="cls-3" y="5.39" width="2560" height="1440"/><path class="cls-4" d="M2560,697.67c0,397.65-845.5,736.94-1243.14,736.94s-743.42-347.36-743.42-745,317-695,714.67-695S2560,300,2560,697.67Z" transform="translate(0 5.39)"/></g><g id="artwork"><g id="Text"><g class="cls-5"><text class="cls-6" transform="translate(398.9 955.12) scale(0.95 1)">J</text><text class="cls-7" transform="translate(24.89 894.94) scale(0.95 1)">P</text></g><g id="Layer_5" data-name="Layer 5"><text class="cls-8" transform="translate(1533.36 700.39)">addicted <tspan class="cls-9"><tspan x="0" y="180">dreamer</tspan></tspan></text></g></g><path class="cls-10" d="M1280,995a275,275,0,1,1,194.45-80.55A273.19,273.19,0,0,1,1280,995Z" transform="translate(0 5.39)"/><path class="cls-11" d="M1113.83,553.83a233.28,233.28,0,0,1,153.85-68.51" transform="translate(0 5.39)"/><path class="cls-11" d="M1063.07,629.31a232.57,232.57,0,0,1,22.62-41.6" transform="translate(0 5.39)"/><path class="cls-12" d="M1280,430c-160.16,0-290,129.84-290,290s129.84,290,290,290,290-129.84,290-290S1440.16,430,1280,430Zm194.45,484.45A275,275,0,1,1,1555,720,273.19,273.19,0,0,1,1474.45,914.45Z" transform="translate(0 5.39)"/><circle class="cls-13" cx="841" cy="425.06" r="76"/><circle class="cls-14" cx="841" cy="425.06" r="64"/><circle class="cls-15" cx="841" cy="425.06" r="52"/><circle class="cls-16" cx="841" cy="425.06" r="40"/><circle class="cls-17" cx="1745.47" cy="1040.39" r="49"/><circle class="cls-18" cx="1745.47" cy="1040.39" r="37"/><circle class="cls-19" cx="1745.47" cy="1040.39" r="25"/><circle class="cls-20" cx="1708.47" cy="459.43" r="20"/><circle class="cls-21" cx="825" cy="1008.39" r="20"/><circle class="cls-22" cx="1385.67" cy="1077.39" r="10"/><path class="cls-23" d="M721.16,695v7.67A17.35,17.35,0,0,0,738.49,720h0a17.35,17.35,0,0,0-17.32,17.32v0A17.35,17.35,0,0,0,703.83,720h0a17.35,17.35,0,0,0,17.32-17.32Z" transform="translate(0 5.39)"/><path class="cls-23" d="M1828.8,769l0,7.67A17.34,17.34,0,0,0,1846.13,794h0a17.33,17.33,0,0,0-17.31,17.32l0,7.67v-7.67A17.34,17.34,0,0,0,1811.48,794h0a17.34,17.34,0,0,0,17.31-17.32Z" transform="translate(0 5.39)"/><path class="cls-23" d="M1292.5,277.45v3.83a8.67,8.67,0,0,0,8.65,8.66h0a8.67,8.67,0,0,0-8.65,8.66v0a8.67,8.67,0,0,0-8.65-8.66h0a8.67,8.67,0,0,0,8.65-8.66Z" transform="translate(0 5.39)"/><path class="cls-23" d="M1178.26,1098.5v3.83a8.68,8.68,0,0,0,8.66,8.66h0a8.68,8.68,0,0,0-8.66,8.66v0a8.68,8.68,0,0,0-8.66-8.66h0a8.68,8.68,0,0,0,8.66-8.66Z" transform="translate(0 5.39)"/><path class="cls-23" d="M837.8,635.5a7.5,7.5,0,0,1-10.6-10.61c2.93-2.93,81.67-71.06,81.67-71.06S840.73,632.57,837.8,635.5Z" transform="translate(0 5.39)"/><path class="cls-23" d="M1459.83,377.47a7.5,7.5,0,0,1-10.61-10.61c2.93-2.93,81.67-71.06,81.67-71.06S1462.76,374.54,1459.83,377.47Z" transform="translate(0 5.39)"/><path class="cls-23" d="M1033.93,1111.74a7.5,7.5,0,0,1-10.6-10.61c2.93-2.93,81.67-71.06,81.67-71.06S1036.86,1108.81,1033.93,1111.74Z" transform="translate(0 5.39)"/><path class="cls-23" d="M1659.34,784.74a7.5,7.5,0,1,1-10.61-10.61c2.93-2.93,81.67-71.06,81.67-71.06S1662.27,781.81,1659.34,784.74Z" transform="translate(0 5.39)"/><path class="cls-23" d="M1598.58,316.66a2.68,2.68,0,0,1-3.79-3.79c1-1.05,29.21-25.42,29.21-25.42S1599.63,315.61,1598.58,316.66Z" transform="translate(0 5.39)"/><path class="cls-23" d="M882.58,734.21a2.68,2.68,0,1,1-3.79-3.79c1-1,29.21-25.42,29.21-25.42S883.63,733.17,882.58,734.21Z" transform="translate(0 5.39)"/><path class="cls-23" d="M1269.58,1074.21a2.68,2.68,0,0,1-3.79-3.79c1-1.05,29.21-25.42,29.21-25.42S1270.63,1073.17,1269.58,1074.21Z" transform="translate(0 5.39)"/><path class="cls-23" d="M1025.71,433.88a2.68,2.68,0,0,1-3.79-3.79c1.05-1,29.21-25.42,29.21-25.42S1026.76,432.83,1025.71,433.88Z" transform="translate(0 5.39)"/><path class="cls-24" d="M1554.92,713.67c0-.66,0-1.32-.05-2,0-1.57-.11-3.13-.18-4.7l-.09-1.84c0-1-.12-2.07-.19-3.1a3.16,3.16,0,0,0-2.14-2.79c-32-10.81-67.33-18.17-104.37-18a13.54,13.54,0,0,0-1.86,0c-1.55,0-3.1,0-4.65.06l-.34.12-1.67,0a255.71,255.71,0,0,0-47.17,6.33c-36.9,8.47-64.71,23.16-88.2,38.83a4.52,4.52,0,0,1-1.55,1.2L1334,717.73l-30,8.86-3.81,2.58c-39.59,27.52-70.12,58.37-120.53,68.27-41,8-94.68,2.16-164.15-41.31l-3.13-2a3.17,3.17,0,0,0-3.79.28l0,0c-.38,1-.68,1.82-1.06,2.81.24,1.79.5,3.56.78,5.34.14.91.29,1.82.44,2.73.24,1.46.49,2.9.75,4.35.17.93.34,1.86.52,2.79q.53,2.73,1.11,5.45c.18.86.37,1.71.56,2.57.39,1.77.8,3.53,1.23,5.3.22.87.44,1.75.67,2.63.38,1.5.77,3,1.18,4.49.22.79.43,1.59.66,2.38.6,2.15,1.23,4.28,1.89,6.41.2.64.41,1.27.61,1.9.52,1.63,1.05,3.26,1.59,4.87l.81,2.34q.88,2.53,1.81,5l.59,1.59c.81,2.15,1.66,4.29,2.52,6.41l.72,1.73q1,2.53,2.15,5c.28.62.55,1.23.82,1.85q2.91,6.5,6.17,12.84l.79,1.53c.92,1.76,1.86,3.52,2.82,5.26.22.41.44.82.67,1.22,1.19,2.15,2.41,4.29,3.66,6.4l.25.41q1.76,3,3.59,5.86l.75,1.19q1.91,3,3.9,6l.11.18C1063.15,893.52,1094,922.7,1106,933h0c1.59,1.3,3.2,2.58,4.81,3.85l2.08,1.6c1,.76,2,1.52,3,2.27l2.31,1.7,2.84,2,2.4,1.68c.94.66,1.88,1.31,2.83,1.95l2.44,1.63c1,.64,1.93,1.27,2.9,1.89l2.42,1.55c1,.65,2.06,1.28,3.1,1.91l2.28,1.4q1.9,1.13,3.82,2.22l1.85,1.07c1.71,1,3.42,1.91,5.15,2.83.72.39,1.46.77,2.19,1.15,1.13.6,2.26,1.19,3.4,1.77l2.45,1.22,3.21,1.57,2.55,1.19c1.06.5,2.13,1,3.2,1.47.85.39,1.71.77,2.56,1.14l3.3,1.42,2.5,1,3.57,1.42c.76.3,1.52.61,2.28.9,1.56.6,3.14,1.18,4.71,1.75l1.18.44q2.93,1,5.86,2l2.15.69q1.93.63,3.87,1.23l2.47.73c1.2.36,2.4.71,3.61,1l2.58.7c1.19.33,2.38.64,3.58.95l2.58.64c1.23.31,2.46.6,3.69.88.83.19,1.66.39,2.49.57l4,.85c.73.15,1.45.31,2.18.45q2.84.56,5.68,1.05l.56.11c2.08.35,4.16.69,6.25,1l2.09.29c1.41.2,2.82.39,4.24.57.82.11,1.65.2,2.47.29,1.3.16,2.61.3,3.91.44l2.6.25,3.85.33,2.61.19c1.31.09,2.63.17,4,.24.83.05,1.67.1,2.5.13,1.44.07,2.89.12,4.34.16.71,0,1.41.06,2.12.07q3.23.08,6.47.08a275,275,0,0,0,275-275Q1555,716.82,1554.92,713.67Z" transform="translate(0 5.39)"/><path class="cls-25" d="M1438.56,681.34" transform="translate(0 5.39)"/><path class="cls-26" d="M1261.1,714.61" transform="translate(0 5.39)"/><path class="cls-27" d="M1441.39,681.34" transform="translate(0 5.39)"/><path class="cls-28" d="M1300.32,729.08c-.59.41.47-.32-.12.09" transform="translate(0 5.39)"/><path class="cls-29" d="M1085.55,914.45a275.3,275.3,0,0,0,447.81-87.18c-40-16.09-85.9-25.76-134.85-19-95.2,13.09-127.72,78-204.37,86.81-42.33,4.87-97.65-7.41-167.24-67.18A274.37,274.37,0,0,0,1085.55,914.45Z" transform="translate(0 5.39)"/><path class="cls-30" d="M1179.67,797.44c51.16-10.05,81.85-41.68,122.31-69.5a108.27,108.27,0,0,1-13-2.15c-45.51-10.48-55-44.65-99.14-53.11-39.27-7.53-95.8,7.26-179.48,80.19C1082.35,799.3,1137.69,805.69,1179.67,797.44Z" transform="translate(0 5.39)"/><circle class="cls-31" cx="1507.74" cy="942.2" r="112.5"/><path class="cls-32" d="M1474.45,525.55A273.31,273.31,0,0,0,1350.28,454a279.76,279.76,0,0,1,24.17,21.52A275,275,0,0,1,1180,945a276.9,276.9,0,0,1-70.28-9,275,275,0,0,0,364.73-410.42Z" transform="translate(0 5.39)"/><path class="cls-33" d="M1280,995a275,275,0,1,1,194.45-80.55A273.19,273.19,0,0,1,1280,995Z" transform="translate(0 5.39)"/><circle id="base" class="cls-34" cx="1280" cy="725.39" r="290"/><circle id="shine" class="cls-35" cx="1280" cy="725.39" r="290"/><g class="cls-36"><path class="cls-37" d="M1697.74,423.39c-38-54.29-261.37,36.52-498.89,202.83S799.61,971.36,837.63,1025.64,1099,989.12,1336.51,822.82,1735.75,477.68,1697.74,423.39Zm-372.7,383c-223.94,156.81-431.16,247.25-462.84,202s124.18-209,348.13-365.84,431.16-247.24,462.83-202S1549,649.63,1325,806.43Z" transform="translate(0 5.39)"/></g><g class="cls-36"><path class="cls-38" d="M1697.74,423.39c-38-54.29-261.37,36.52-498.89,202.83S799.61,971.36,837.63,1025.64,1099,989.12,1336.51,822.82,1735.75,477.68,1697.74,423.39Zm-372.7,383c-223.94,156.81-431.16,247.25-462.84,202s124.18-209,348.13-365.84,431.16-247.24,462.83-202S1549,649.63,1325,806.43Z" transform="translate(0 5.39)"/></g><g class="cls-36"><path class="cls-38" d="M1697.74,423.39c-38-54.29-261.37,36.52-498.89,202.83S799.61,971.36,837.63,1025.64,1099,989.12,1336.51,822.82,1735.75,477.68,1697.74,423.39Zm-372.7,383c-223.94,156.81-431.16,247.25-462.84,202s124.18-209,348.13-365.84,431.16-247.24,462.83-202S1549,649.63,1325,806.43Z" transform="translate(0 5.39)"/></g><circle class="cls-39" cx="1113.83" cy="361.06" r="10"/><circle class="cls-40" cx="1109.72" cy="655.39" r="10"/><circle class="cls-41" cx="1395.67" cy="614.71" r="10"/><g class="cls-42"><circle class="cls-43" cx="1133.83" cy="725.39" r="10"/><circle class="cls-44" cx="1178.26" cy="757.95" r="10"/><circle class="cls-45" cx="1085.69" cy="766.4" r="10"/><circle class="cls-46" cx="1227.22" cy="725.39" r="10"/><circle class="cls-47" cx="1428.56" cy="709.98" r="10"/><circle class="cls-48" cx="1375.01" cy="751.47" r="10"/><circle class="cls-49" cx="1332.36" cy="741.47" r="10"/><circle class="cls-50" cx="1295" cy="767.95" r="10"/><circle class="cls-51" cx="1292.5" cy="810.84" r="10"/><circle class="cls-52" cx="1251.1" cy="833.51" r="10"/><circle class="cls-53" cx="1211.22" cy="820.84" r="10"/><circle class="cls-54" cx="1168.26" cy="875.28" r="10"/><circle class="cls-55" cx="1041.13" cy="800.84" r="10"/><circle class="cls-56" cx="1113.83" cy="843.51" r="10"/><circle class="cls-57" cx="1428.56" cy="795.9" r="10"/><circle class="cls-58" cx="1436.37" cy="756.4" r="10"/><circle class="cls-59" cx="1497.74" cy="747.95" r="10"/><circle class="cls-60" cx="1115" cy="915.93" r="10"/><circle class="cls-61" cx="1201.22" cy="959.06" r="10"/><circle class="cls-62" cx="1221.22" cy="925.93" r="10"/><circle class="cls-63" cx="1298.11" cy="900.65" r="10"/><circle class="cls-64" cx="1352.36" cy="855.28" r="10"/><circle class="cls-65" cx="1448.04" cy="845.28" r="10"/><circle class="cls-66" cx="1441.39" cy="909.06" r="10"/><circle class="cls-67" cx="1385.01" cy="899.06" r="10"/><circle class="cls-68" cx="1365.01" cy="956.68" r="10"/><circle class="cls-69" cx="1265" cy="976.68" r="10"/><ellipse class="cls-70" cx="1219.11" cy="769.95" rx="17.06" ry="17.47"/><ellipse class="cls-71" cx="1123.83" cy="883.01" rx="17.06" ry="17.47"/><ellipse class="cls-72" cx="1175.62" cy="910.65" rx="17.06" ry="17.47"/><ellipse class="cls-73" cx="1310.51" cy="945.71" rx="17.06" ry="17.47"/><ellipse class="cls-74" cx="1472.39" cy="881.85" rx="17.06" ry="17.47"/><ellipse class="cls-75" cx="1190.76" cy="716.69" rx="6.56" ry="6.57"/><ellipse class="cls-76" cx="1428.56" cy="935.93" rx="6.56" ry="6.57"/><ellipse class="cls-77" cx="1140.39" cy="779.53" rx="6.56" ry="6.57"/><ellipse class="cls-78" cx="1256.53" cy="762.41" rx="6.56" ry="6.57"/><ellipse class="cls-79" cx="1472.39" cy="766.4" rx="6.56" ry="6.57"/><ellipse class="cls-80" cx="1097.27" cy="786.1" rx="6.56" ry="6.57"/><ellipse class="cls-81" cx="1325.47" cy="772.97" rx="6.56" ry="6.57"/><ellipse class="cls-82" cx="1332.03" cy="800.84" rx="6.56" ry="6.57"/><ellipse class="cls-83" cx="1388.55" cy="716.69" rx="6.56" ry="6.57"/><ellipse class="cls-84" cx="1156.19" cy="945.71" rx="6.56" ry="6.57"/><ellipse class="cls-85" cx="1259.15" cy="804.27" rx="6.56" ry="6.57"/><ellipse class="cls-86" cx="1217.86" cy="860.83" rx="6.56" ry="6.57"/><ellipse class="cls-87" cx="1069.62" cy="818.51" rx="6.56" ry="6.57"/><ellipse class="cls-88" cx="1182.17" cy="839.97" rx="6.56" ry="6.57"/><ellipse class="cls-89" cx="1394.77" cy="813.51" rx="6.56" ry="6.57"/><ellipse class="cls-90" cx="1524.29" cy="804.27" rx="6.56" ry="6.57"/><ellipse class="cls-91" cx="1524.29" cy="755.85" rx="6.56" ry="6.57"/><ellipse class="cls-92" cx="1103.83" cy="715.39" rx="6.56" ry="6.57"/><ellipse class="cls-93" cx="1085.69" cy="875.28" rx="6.56" ry="6.57"/><ellipse class="cls-94" cx="1252.59" cy="894.08" rx="6.56" ry="6.57"/><ellipse class="cls-95" cx="1316.86" cy="885.28" rx="6.56" ry="6.57"/><ellipse class="cls-96" cx="1325.47" cy="855.28" rx="6.56" ry="6.57"/><ellipse class="cls-97" cx="1401.32" cy="841.13" rx="6.56" ry="6.57"/><ellipse class="cls-98" cx="1472.39" cy="845.28" rx="6.56" ry="6.57"/><ellipse class="cls-99" cx="1524.29" cy="720" rx="6.56" ry="6.57"/><ellipse class="cls-100" cx="1362.36" cy="919.06" rx="6.56" ry="6.57"/><ellipse class="cls-101" cx="1310.3" cy="982.29" rx="6.56" ry="6.57"/><ellipse class="cls-102" cx="1478.95" cy="807.4" rx="17.06" ry="17.47"/><ellipse class="cls-103" cx="1283.39" cy="864.38" rx="17.06" ry="17.47"/></g></g></g></svg>